Coordinates
version=1
nRows=8
nColumns=34
inDegrees=yes

Units are S.I. units (second, meters, Newtons, ...)
If the header above contains a line with 'inDegrees', this indicates whether rotational values are in degrees (yes) or radians (no).

endheader
time	pelvis_tilt	pelvis_list	pelvis_rotation	pelvis_tx	pelvis_ty	pelvis_tz	hip_flexion_r	hip_adduction_r	hip_rotation_r	knee_angle_r	ankle_angle_r	subtalar_angle_r	mtp_angle_r	hip_flexion_l	hip_adduction_l	hip_rotation_l	knee_angle_l	ankle_angle_l	subtalar_angle_l	mtp_angle_l	lumbar_extension	lumbar_bending	lumbar_rotation	arm_flex_r	arm_add_r	arm_rot_r	elbow_flex_r	pro_sup_r	arm_flex_l	arm_add_l	arm_rot_l	elbow_flex_l	pro_sup_l
      7.42500000	      4.09966580	     -2.10788774	   -182.54559241	      0.22593078	      1.05272361	      0.14721950	    -10.89864313	     -2.19882217	     -2.28971112	     26.86957589	     -7.21357707	     -4.30791323	      0.00000000	     56.02201441	     -0.60281736	     -4.50265671	     89.23588684	     -6.91050746	    -22.48359548	      0.00000000	    -12.15808021	      2.85097110	      8.80284865	     19.23072095	    -28.17669560	     15.24535852	    117.27464980	     95.21857741	    -44.95245862	    -23.59568896	     -8.61035102	     90.08892245	     86.27502115
      7.43333330	      3.87451554	     -1.57652028	   -182.09875660	      0.22192163	      1.05962364	      0.14600398	    -14.05637173	     -1.93525999	     -2.61970093	     25.24161418	    -11.88851268	     -3.72231054	      0.00000000	     55.44777567	     -0.88212566	     -4.38365379	     82.24793697	     -8.78095936	    -21.65276074	      0.00000000	    -11.64354514	      3.42719165	      9.62382961	     17.95721870	    -27.80793605	     14.35241415	    120.25318965	     95.54173232	    -46.29923038	    -23.24348605	     -9.79340268	     90.67987441	     86.49278795
      7.44166670	      3.59474909	     -0.83872721	   -181.45174852	      0.21833856	      1.06644357	      0.14490992	    -16.62964152	     -1.25421022	     -2.25023321	     24.82802337	    -15.77582763	     -4.65030002	      0.00000000	     54.41365142	     -1.22423524	     -4.07036107	     74.83030053	    -10.66484476	    -20.20008450	      0.00000000	    -11.27507459	      4.18917846	     10.27059910	     16.50118323	    -27.48759270	     13.64874600	    123.18659063	     95.91461298	    -47.24185268	    -23.11317839	    -10.81171606	     91.08467383	     86.65634922
      7.45000000	      3.19775954	     -0.11047155	   -180.60857360	      0.21570955	      1.07330245	      0.14424927	    -18.78325614	     -0.27890493	     -1.08072318	     25.56790580	    -18.28281227	     -6.79653331	      0.00000000	     52.88019564	     -1.41367073	     -3.74442152	     67.01429740	    -12.09041978	    -17.81890186	      0.00000000	    -11.16462000	      4.88177257	     10.64246436	     15.19890051	    -27.28232158	     13.28602655	    125.62195977	     96.26032217	    -47.76646343	    -23.14149646	    -11.69030996	     91.27039173	     86.71061647
      7.45833330	      2.90348849	      0.42177321	   -179.84694346	      0.21339815	      1.07939619	      0.14344687	    -20.35138263	      0.62924462	      0.59681199	     27.31027280	    -19.77954404	     -9.39584653	      0.00000000	     51.26695278	     -1.49298426	     -3.71751148	     59.12268558	    -13.16819521	    -14.89288514	      0.00000000	    -10.94718193	      5.41749030	     10.97581983	     13.96886387	    -26.88889994	     13.41807188	    127.47736098	     96.54745146	    -47.87537298	    -23.29624221	    -12.61690196	     91.24379337	     86.66518186
      7.46666670	      2.62991317	      1.06732804	   -179.35275445	      0.21233738	      1.08405922	      0.14239296	    -21.37557993	      1.75674929	      2.85098917	     30.16420369	    -20.37574474	    -12.53581312	      0.00000000	     49.62392261	     -1.83515034	     -3.95523492	     51.31744842	    -14.18243498	    -11.45577561	      0.00000000	    -10.93638530	      6.04012654	     11.47008899	     12.96369231	    -26.78632988	     13.34465178	    128.83589656	     96.85134413	    -47.71536947	    -23.28112051	    -13.51248076	     91.24110949	     86.55423419
      7.47500000	      2.41775155	      1.77389883	   -178.99654586	      0.21113409	      1.08735794	      0.14163503	    -22.06700278	      2.97011495	      4.94151294	     33.58887241	    -20.54313957	    -15.58441984	      0.00000000	     47.80292157	     -2.21423433	     -4.45678467	     43.47182901	    -15.30388007	     -7.97390537	      0.00000000	    -10.88459431	      6.64825636	     12.10152206	     12.14865283	    -26.85065359	     12.70662990	    127.83486718	     97.10868711	    -47.21655776	    -23.21080582	    -14.42555558	     91.23032542	     86.40963841
      7.48333330	      2.15452859	      2.64581202	   -178.80117022	      0.21039112	      1.08876550	      0.14099116	    -22.44856791	      4.28425744	      6.65730605	     37.66907639	    -20.43535765	    -18.83886019	      0.00000000	     45.77680624	     -2.76620920	     -5.13396064	     35.85768564	    -16.42086801	     -4.34234119	      0.00000000	    -10.95370416	      7.37497457	     12.69946140	     11.49340818	    -27.07512159	     11.88497805	    126.16216327	     97.31435428	    -46.70767745	    -22.94203387	    -15.33790689	     91.37519775	     86.25604929
